<?xml version="1.0" encoding="UTF-8"?><svg id="Layer_3" xmlns="http://www.w3.org/2000/svg" xmlns:xlink="http://www.w3.org/1999/xlink" viewBox="0 0 464 143.5"><defs><style>.cls-1{fill:#fff;}.cls-2{fill:url(#New_Gradient_Swatch_copy_2);}.cls-3{fill:url(#New_Gradient_Swatch_copy_2-2);}.cls-4{fill:url(#New_Gradient_Swatch_copy_2-3);}.cls-5{fill:url(#New_Gradient_Swatch_copy_2-4);}</style><linearGradient id="New_Gradient_Swatch_copy_2" x1="-57.45" y1="272.16" x2="9.58" y2="272.16" gradientTransform="translate(11.55 -184.62) rotate(-18.04)" gradientUnits="userSpaceOnUse"><stop offset=".17" stop-color="#1569bb"/><stop offset=".96" stop-color="#00c6ae"/></linearGradient><linearGradient id="New_Gradient_Swatch_copy_2-2" x1="-63.07" y1="249.23" x2="3.97" y2="249.23" xlink:href="#New_Gradient_Swatch_copy_2"/><linearGradient id="New_Gradient_Swatch_copy_2-3" x1="-4477.43" y1="984.48" x2="-4405.1" y2="984.48" gradientTransform="translate(-2944.14 3487.28) rotate(144.14)" xlink:href="#New_Gradient_Swatch_copy_2"/><linearGradient id="New_Gradient_Swatch_copy_2-4" x1="-4477.43" y1="1024.16" x2="-4405.1" y2="1024.16" gradientTransform="translate(-2944.14 3487.28) rotate(144.14)" xlink:href="#New_Gradient_Swatch_copy_2"/></defs><g><path class="cls-1" d="M139.96,53.43c2.93,0,5.29,2.36,5.29,5.29s-2.36,5.29-5.29,5.29-5.29-2.36-5.29-5.29,2.36-5.29,5.29-5.29Zm-4.43,16.79h8.93v33.16h-8.93v-33.16Z"/><path class="cls-1" d="M151.18,70.22h8.36v5.79c.93-2.07,3.86-6.79,11.15-6.79,5.43,0,10.58,2.36,10.58,11.5v22.65h-8.93v-20.29c0-4.29-1.29-6.22-4.07-6.22-5.29,0-7.5,7.29-8.15,10.08v16.44h-8.93v-33.16Z"/><path class="cls-1" d="M184.77,70.22h4.86l.36-9.36h8.43v9.36h9.22v6.86h-9.22v16.01c0,2.57,.57,3.79,2.22,3.79s2.43-1.72,2.79-4.57l6.86,2.72c-1.5,5.07-3.57,9.07-10.79,9.07-7.57,0-10-5.43-10-11.08v-15.93h-4.72v-6.86Z"/><path class="cls-1" d="M213.13,70.22h8.36v5.79c1.43-3.36,3.57-6.79,8.79-6.79,4.07,0,5.93,2.86,5.93,2.86l-5,7.07s-1.14-2.07-3.07-2.07c-3.14,0-5.15,5.14-6.07,9.29v17.01h-8.93v-33.16Z"/><path class="cls-1" d="M256.87,99.38c-1.57,2.36-4.64,5-9.86,5-5.93,0-11-3.22-11-9.43,0-7.72,7.72-11.43,19.72-11.5v-1.14c0-4.57-1.14-6.29-4.93-6.29-3.21,0-4.93,1.43-4.79,5.29l-8.86-1.64c-.79-6.07,4.36-10.43,14.15-10.43s13.36,3.86,13.36,12.86v9.93c0,3.22,0,5.15,4,4.5l-1.64,7.29c-6.86,.86-9.36-1.86-10.15-4.43Zm-1.14-10c-6.15,.07-10.36,1.21-10.36,4.93,0,2.07,1.29,3.22,3.72,3.22,3.14,0,6.36-2,6.65-5.36v-2.79Z"/><path class="cls-1" d="M278.44,93.02c-.36,2.36,1.57,4.5,5.86,4.5,2.79,0,5.22-1,5.22-3.14,0-5.5-18.44-2.43-18.44-14.79,0-6.07,4.43-10.36,13.51-10.36,7.79,0,14.22,3.36,13.08,9.65l-8.93,1.57c.43-1.86-.5-4.36-4.43-4.36-2.79,0-4.14,1.07-4.14,3.07,0,5.86,18.58,2.36,18.58,14.65,0,7.07-6.29,10.58-14.43,10.58s-15.01-3.07-14.29-10l8.43-1.36Z"/><path class="cls-1" d="M311.17,88.87c.29,5.07,1.86,8.65,7.29,8.65,3.79,0,5.5-1.5,6.43-3.86l7.86,1.64c-1.79,5.93-6.36,9.08-14.43,9.08-10.58,0-16.58-5.57-16.58-17.58,0-8.79,3.93-17.58,16.43-17.58,9.5,0,14.58,5.36,14.58,15.86v3.79h-21.58Zm.14-6.29h12.08v-.57c0-3.29-1.29-5.93-5.36-5.93-3.86,0-6,1.5-6.72,6.5Z"/><path class="cls-1" d="M334.75,70.22h4.86l.36-9.36h8.43v9.36h9.22v6.86h-9.22v16.01c0,2.57,.57,3.79,2.22,3.79s2.43-1.72,2.79-4.57l6.86,2.72c-1.5,5.07-3.57,9.07-10.79,9.07-7.57,0-10-5.43-10-11.08v-15.93h-4.72v-6.86Z"/><path class="cls-1" d="M360.12,70.22h4.86l.36-9.36h8.43v9.36h9.22v6.86h-9.22v16.01c0,2.57,.57,3.79,2.22,3.79s2.43-1.72,2.79-4.57l6.86,2.72c-1.5,5.07-3.57,9.07-10.79,9.07-7.57,0-10-5.43-10-11.08v-15.93h-4.72v-6.86Z"/><path class="cls-1" d="M388.48,52.07h8.93v51.31h-8.93V52.07Z"/><path class="cls-1" d="M411.85,88.87c.29,5.07,1.86,8.65,7.29,8.65,3.79,0,5.5-1.5,6.43-3.86l7.86,1.64c-1.79,5.93-6.36,9.08-14.43,9.08-10.58,0-16.58-5.57-16.58-17.58,0-8.79,3.93-17.58,16.43-17.58,9.5,0,14.58,5.36,14.58,15.86v3.79h-21.58Zm.14-6.29h12.08v-.57c0-3.29-1.29-5.93-5.36-5.93-3.86,0-6,1.5-6.72,6.5Z"/></g><g><path class="cls-2" d="M71.92,97.28c7.68-7.68,8.4-19.69,2.15-28.18l20.75-20.75c11.87,14.27,11.11,35.49-2.27,48.87s-34.61,14.13-48.87,2.26l.06-.06c8.49,6.25,20.5,5.54,28.18-2.14Z"/><path class="cls-3" d="M59.69,73.96c-6.14-8.48-5.4-20.4,2.24-28.04s19.56-8.38,28.04-2.24l.08-.08c-14.27-11.87-35.49-11.12-48.87,2.26-13.38,13.38-14.14,34.6-2.27,48.87l20.77-20.77Z"/><path class="cls-4" d="M91.48,80.62c-8.8,6.36-20.78,5.16-28.16-2.36l-23.78,17.19c12.2,13.98,33.28,16.61,48.61,5.52,15.34-11.09,19.45-31.92,10-47.89l-.07,.05c4.83,9.37,2.21,21.12-6.59,27.48Z"/><path class="cls-5" d="M70.4,64.84c-7.4-7.41-19.29-8.57-28.04-2.24-8.76,6.33-11.39,17.98-6.67,27.33l-.1,.07c-9.45-15.97-5.34-36.81,10-47.89,15.34-11.09,36.41-8.46,48.61,5.52l-23.81,17.21Z"/></g></svg>